<svg width="204" height="87" viewBox="0 0 204 87" fill="none" xmlns="http://www.w3.org/2000/svg">
<path d="M47.4167 9.96953V48H36.8437V27.0158L29.6692 48H20.8224L13.5939 26.854V48H3.02086V9.96953H15.8056L25.3536 34.6759L34.6859 9.96953H47.4167ZM67.5146 48.3776C64.4938 48.3776 61.7786 47.7483 59.3691 46.4896C56.9955 45.2309 55.1255 43.4327 53.7589 41.0952C52.3923 38.7576 51.709 36.0065 51.709 32.8418C51.709 29.713 52.3923 26.9798 53.7589 24.6423C55.1615 22.3047 57.0495 20.5066 59.423 19.2479C61.8325 17.9892 64.5477 17.3599 67.5686 17.3599C70.5894 17.3599 73.2866 17.9892 75.6601 19.2479C78.0696 20.5066 79.9577 22.3047 81.3243 24.6423C82.7268 26.9798 83.4281 29.713 83.4281 32.8418C83.4281 35.9705 82.7268 38.7216 81.3243 41.0952C79.9577 43.4327 78.0696 45.2309 75.6601 46.4896C73.2507 47.7483 70.5355 48.3776 67.5146 48.3776ZM67.5146 39.2071C68.9891 39.2071 70.2118 38.6677 71.1828 37.5888C72.1898 36.474 72.6932 34.8916 72.6932 32.8418C72.6932 30.7919 72.1898 29.2275 71.1828 28.1486C70.2118 27.0698 69.0071 26.5303 67.5686 26.5303C66.1301 26.5303 64.9253 27.0698 63.9543 28.1486C62.9833 29.2275 62.4978 30.7919 62.4978 32.8418C62.4978 34.9276 62.9653 36.5099 63.9004 37.5888C64.8354 38.6677 66.0401 39.2071 67.5146 39.2071ZM102.241 38.0204L107.905 17.7375H119.179L108.768 48H95.6055L85.1943 17.7375H96.4686L102.241 38.0204ZM128.102 14.9324C126.232 14.9324 124.722 14.4289 123.571 13.4219C122.456 12.379 121.899 11.0844 121.899 9.53798C121.899 7.95563 122.456 6.64299 123.571 5.60008C124.722 4.55716 126.232 4.0357 128.102 4.0357C129.936 4.0357 131.411 4.55716 132.525 5.60008C133.676 6.64299 134.252 7.95563 134.252 9.53798C134.252 11.0844 133.676 12.379 132.525 13.4219C131.411 14.4289 129.936 14.9324 128.102 14.9324ZM133.335 17.7375V48H122.762V17.7375H133.335ZM168.27 32.5181C168.27 33.3452 168.216 34.1724 168.108 34.9995H148.095C148.203 36.6538 148.652 37.8945 149.443 38.7216C150.27 39.5128 151.313 39.9084 152.572 39.9084C154.334 39.9084 155.593 39.1172 156.348 37.5349H167.622C167.155 39.6207 166.238 41.4908 164.871 43.145C163.541 44.7634 161.85 46.04 159.8 46.9751C157.751 47.9101 155.485 48.3776 153.004 48.3776C150.019 48.3776 147.357 47.7483 145.02 46.4896C142.718 45.2309 140.902 43.4327 139.571 41.0952C138.277 38.7576 137.629 36.0065 137.629 32.8418C137.629 29.677 138.277 26.9439 139.571 24.6423C140.866 22.3047 142.664 20.5066 144.966 19.2479C147.303 17.9892 149.983 17.3599 153.004 17.3599C155.988 17.3599 158.632 17.9712 160.933 19.1939C163.235 20.4167 165.033 22.1788 166.328 24.4804C167.622 26.7461 168.27 29.4253 168.27 32.5181ZM157.481 29.8748C157.481 28.5802 157.049 27.5732 156.186 26.854C155.323 26.0988 154.244 25.7212 152.95 25.7212C151.655 25.7212 150.594 26.0808 149.767 26.8C148.94 27.4833 148.4 28.5083 148.149 29.8748H157.481Z" fill="white"/>
<path d="M186.946 48.3776C182.522 48.3776 178.89 47.3347 176.049 45.2489C173.208 43.1271 171.679 40.1062 171.464 36.1863H182.738C182.846 37.5169 183.241 38.4879 183.925 39.0993C184.608 39.7106 185.489 40.0163 186.568 40.0163C187.539 40.0163 188.33 39.7825 188.942 39.315C189.589 38.8116 189.913 38.1283 189.913 37.2652C189.913 36.1503 189.391 35.2872 188.348 34.6759C187.305 34.0645 185.615 33.3812 183.277 32.626C180.796 31.7988 178.782 31.0077 177.236 30.2524C175.725 29.4613 174.395 28.3284 173.244 26.854C172.129 25.3436 171.572 23.3836 171.572 20.9741C171.572 18.5286 172.183 16.4428 173.406 14.7166C174.628 12.9544 176.319 11.6238 178.476 10.7247C180.634 9.82568 183.08 9.37615 185.813 9.37615C190.236 9.37615 193.761 10.4191 196.386 12.5049C199.047 14.5548 200.468 17.4498 200.647 21.1899H189.157C189.121 20.0391 188.762 19.176 188.078 18.6006C187.431 18.0252 186.586 17.7375 185.543 17.7375C184.752 17.7375 184.105 17.9712 183.601 18.4387C183.098 18.9062 182.846 19.5716 182.846 20.4347C182.846 21.1539 183.116 21.7833 183.655 22.3227C184.23 22.8262 184.932 23.2757 185.759 23.6713C186.586 24.0309 187.809 24.4984 189.427 25.0738C191.837 25.901 193.814 26.7281 195.361 27.5553C196.943 28.3464 198.292 29.4793 199.407 30.9537C200.557 32.3922 201.133 34.2263 201.133 36.456C201.133 38.7216 200.557 40.7535 199.407 42.5517C198.292 44.3498 196.656 45.7703 194.498 46.8132C192.376 47.8561 189.859 48.3776 186.946 48.3776Z" fill="#00CF9D"/>
<path d="M10.268 81.112C9.532 81.112 8.87067 80.984 8.284 80.728C7.708 80.4613 7.25467 80.0987 6.924 79.64C6.59333 79.1707 6.42267 78.632 6.412 78.024H7.964C8.01733 78.5467 8.23067 78.9893 8.604 79.352C8.988 79.704 9.54267 79.88 10.268 79.88C10.9613 79.88 11.5053 79.7093 11.9 79.368C12.3053 79.016 12.508 78.568 12.508 78.024C12.508 77.5973 12.3907 77.2507 12.156 76.984C11.9213 76.7173 11.628 76.5147 11.276 76.376C10.924 76.2373 10.4493 76.088 9.852 75.928C9.116 75.736 8.524 75.544 8.076 75.352C7.63867 75.16 7.26 74.8613 6.94 74.456C6.63067 74.04 6.476 73.4853 6.476 72.792C6.476 72.184 6.63067 71.6453 6.94 71.176C7.24933 70.7067 7.68133 70.344 8.236 70.088C8.80133 69.832 9.44667 69.704 10.172 69.704C11.2173 69.704 12.0707 69.9653 12.732 70.488C13.404 71.0107 13.7827 71.704 13.868 72.568H12.268C12.2147 72.1413 11.9907 71.768 11.596 71.448C11.2013 71.1173 10.6787 70.952 10.028 70.952C9.42 70.952 8.924 71.112 8.54 71.432C8.156 71.7413 7.964 72.1787 7.964 72.744C7.964 73.1493 8.076 73.48 8.3 73.736C8.53467 73.992 8.81733 74.1893 9.148 74.328C9.48933 74.456 9.964 74.6053 10.572 74.776C11.308 74.9787 11.9 75.1813 12.348 75.384C12.796 75.576 13.18 75.88 13.5 76.296C13.82 76.7013 13.98 77.256 13.98 77.96C13.98 78.504 13.836 79.016 13.548 79.496C13.26 79.976 12.8333 80.3653 12.268 80.664C11.7027 80.9627 11.036 81.112 10.268 81.112ZM31.1146 69.848V81H29.6586V75.944H23.9786V81H22.5226V69.848H23.9786V74.744H29.6586V69.848H31.1146ZM41.4247 69.848V76.904C41.4247 77.896 41.6647 78.632 42.1447 79.112C42.6354 79.592 43.3127 79.832 44.1767 79.832C45.0301 79.832 45.6967 79.592 46.1767 79.112C46.6674 78.632 46.9127 77.896 46.9127 76.904V69.848H48.3687V76.888C48.3687 77.816 48.1821 78.6 47.8087 79.24C47.4354 79.8693 46.9287 80.3387 46.2887 80.648C45.6594 80.9573 44.9501 81.112 44.1607 81.112C43.3714 81.112 42.6567 80.9573 42.0167 80.648C41.3874 80.3387 40.8861 79.8693 40.5127 79.24C40.1501 78.6 39.9687 77.816 39.9687 76.888V69.848H41.4247ZM63.5016 69.848V71.032H58.6536V74.792H62.5896V75.976H58.6536V81H57.1976V69.848H63.5016ZM77.9641 69.848V71.032H73.1161V74.792H77.0521V75.976H73.1161V81H71.6601V69.848H77.9641ZM87.5786 79.816H91.4826V81H86.1226V69.848H87.5786V79.816ZM100.885 71.032V74.76H104.949V75.96H100.885V79.8H105.429V81H99.4289V69.832H105.429V71.032H100.885ZM136.01 69.928V81H134.554V72.744L130.874 81H129.85L126.154 72.728V81H124.698V69.928H126.266L130.362 79.08L134.458 69.928H136.01ZM149.935 81.112C148.9 81.112 147.956 80.872 147.103 80.392C146.25 79.9013 145.572 79.224 145.071 78.36C144.58 77.4853 144.335 76.504 144.335 75.416C144.335 74.328 144.58 73.352 145.071 72.488C145.572 71.6133 146.25 70.936 147.103 70.456C147.956 69.9653 148.9 69.72 149.935 69.72C150.98 69.72 151.93 69.9653 152.783 70.456C153.636 70.936 154.308 71.608 154.799 72.472C155.29 73.336 155.535 74.3173 155.535 75.416C155.535 76.5147 155.29 77.496 154.799 78.36C154.308 79.224 153.636 79.9013 152.783 80.392C151.93 80.872 150.98 81.112 149.935 81.112ZM149.935 79.848C150.714 79.848 151.412 79.6667 152.031 79.304C152.66 78.9413 153.151 78.424 153.503 77.752C153.866 77.08 154.047 76.3013 154.047 75.416C154.047 74.52 153.866 73.7413 153.503 73.08C153.151 72.408 152.666 71.8907 152.047 71.528C151.428 71.1653 150.724 70.984 149.935 70.984C149.146 70.984 148.442 71.1653 147.823 71.528C147.204 71.8907 146.714 72.408 146.351 73.08C145.999 73.7413 145.823 74.52 145.823 75.416C145.823 76.3013 145.999 77.08 146.351 77.752C146.714 78.424 147.204 78.9413 147.823 79.304C148.452 79.6667 149.156 79.848 149.935 79.848ZM173.073 69.848L168.865 81H167.185L162.977 69.848H164.529L168.033 79.464L171.537 69.848H173.073ZM182.525 69.848V81H181.069V69.848H182.525ZM192.863 71.032V74.76H196.927V75.96H192.863V79.8H197.407V81H191.407V69.832H197.407V71.032H192.863Z" fill="white"/>
</svg>
